<?xml version="1.0" encoding="UTF-8" standalone="no"?>
<svg
   xmlns:dc="http://purl.org/dc/elements/1.1/"
   xmlns:cc="http://creativecommons.org/ns#"
   xmlns:rdf="http://www.w3.org/1999/02/22-rdf-syntax-ns#"
   xmlns:svg="http://www.w3.org/2000/svg"
   xmlns="http://www.w3.org/2000/svg"
   xmlns:sodipodi="http://sodipodi.sourceforge.net/DTD/sodipodi-0.dtd"
   xmlns:inkscape="http://www.inkscape.org/namespaces/inkscape"
   width="5.3495755mm"
   height="5.4851766mm"
   viewBox="0 0 5.3495755 5.4851765"
   version="1.1"
   id="svg8"
   inkscape:version="1.0.2 (e86c870879, 2021-01-15)"
   sodipodi:docname="logo.svg">
  <defs
     id="defs2" />
  <sodipodi:namedview
     id="base"
     pagecolor="#ffffff"
     bordercolor="#666666"
     borderopacity="1.0"
     inkscape:pageopacity="0.0"
     inkscape:pageshadow="2"
     inkscape:zoom="7.9195959"
     inkscape:cx="43.726697"
     inkscape:cy="-1.3543057"
     inkscape:document-units="mm"
     inkscape:current-layer="layer1"
     showgrid="false"
     inkscape:window-width="1920"
     inkscape:window-height="983"
     inkscape:window-x="0"
     inkscape:window-y="27"
     inkscape:window-maximized="1"
     fit-margin-left="0.5"
     fit-margin-top="0.5"
     fit-margin-right="0.5"
     fit-margin-bottom="0.5"
     inkscape:document-rotation="0" />
  <metadata
     id="metadata5">
    <rdf:RDF>
      <cc:Work
         rdf:about="">
        <dc:format>image/svg+xml</dc:format>
        <dc:type
           rdf:resource="http://purl.org/dc/dcmitype/StillImage" />
        <dc:title></dc:title>
      </cc:Work>
    </rdf:RDF>
  </metadata>
  <g
     inkscape:label="Calque 1"
     inkscape:groupmode="layer"
     id="layer1"
     transform="translate(-82.346696,-50.015778)">
    <path
       style="fill:#0f29a8;fill-opacity:1;stroke-width:1"
       d="m 82.873529,54.90314 c -0.02504,-0.06526 -0.03422,-0.400847 -0.02039,-0.745739 l 0.02514,-0.627077 0.405533,-0.02594 0.405533,-0.02594 -0.02453,0.74561 -0.02453,0.74561 -0.360608,0.02607 c -0.249982,0.01808 -0.374577,-0.01033 -0.406143,-0.09259 z m 3.560716,0.0079 c -0.02245,-0.06091 -0.05068,-0.731546 -0.06273,-1.49031 l -0.02191,-1.37957 -0.589953,0.765737 c -0.324473,0.421156 -0.637905,0.765738 -0.696514,0.765738 -0.130283,0 -2.161707,-2.680428 -2.175217,-2.87016 -0.0075,-0.104749 0.08644,-0.140593 0.413684,-0.157915 l 0.423333,-0.02241 0.666727,0.88932 0.666728,0.889321 0.671955,-0.892507 0.671955,-0.892506 0.396984,0.02559 0.396984,0.02559 v 2.201333 2.201334 l -0.360607,0.02607 c -0.239478,0.01732 -0.37432,-0.01112 -0.401428,-0.08467 z"
       id="path39"
       inkscape:connector-curvature="0"
       sodipodi:nodetypes="cccccccccccsccscccccccccccccc" />
  </g>
</svg>
